<?xml version="1.0" encoding="UTF-8" standalone="no"?>
<!-- Created with Inkscape (http://www.inkscape.org/) -->

<svg
   width="121.61766mm"
   height="130.42433mm"
   viewBox="0 0 121.61766 130.42433"
   version="1.1"
   id="svg1"
   xmlns="http://www.w3.org/2000/svg"
   xmlns:svg="http://www.w3.org/2000/svg">
  <defs
     id="defs1" />
  <g
     id="layer1"
     transform="translate(447.67502,-261.16712)">
    <g
       id="g31-7"
       transform="matrix(4.1796892,0,0,4.1796892,-1432.7536,-164.73778)"
       style="stroke-width:0.239252">
      <path
         id="path1411-33-9-3"
         style="fill:#ffffff;fill-opacity:1;stroke:none;stroke-width:0.205008;stroke-linejoin:round;paint-order:markers fill stroke"
         d="m 243.38296,101.8987 c -2.28889,0 -4.17342,1.8662 -4.17338,4.1506 0,0.8573 0.31442,1.6336 0.78703,2.203 0.22405,0.27 0.52432,0.4022 0.79065,0.6015 -1.39594,2.3361 -1.57032,5.0875 -2.41588,7.2755 -0.0986,0.2553 -0.0936,0.539 0.014,0.7907 0.25793,0.6056 0.59581,1.144 0.95291,1.6624 -1.35492,2.0021 -3.29978,6.0317 -3.65404,11.7693 -0.0271,0.4406 0.22419,0.8511 0.6289,1.0273 1.59501,0.6966 3.94178,1.0658 6.4978,1.3302 5.26709,0.5447 9.95708,0.5051 14.83992,0 2.556,-0.2643 4.90272,-0.6336 6.49779,-1.3302 0.40471,-0.1762 0.65601,-0.5867 0.6289,-1.0273 -0.35427,-5.7379 -2.29911,-9.7673 -3.65404,-11.7693 0.3571,-0.5184 0.695,-1.0568 0.95292,-1.6624 0.10751,-0.2517 0.11251,-0.5354 0.014,-0.7907 -0.84558,-2.188 -1.02045,-4.9394 -2.41639,-7.2755 0.26634,-0.1993 0.56708,-0.3315 0.79117,-0.6015 0.47265,-0.5694 0.78703,-1.3456 0.78703,-2.203 10e-6,-2.2845 -1.88501,-4.1506 -4.17391,-4.1506 -1.02621,0 -1.93539,0.4255 -2.574,1.0428 -0.42187,0.4077 -0.6331,0.9373 -0.88883,1.4418 -0.96477,-0.2086 -2.03886,-0.3476 -3.33779,-0.3519 h -0.002 -0.045 -0.0429 c -1.30278,0 -2.37793,0.1421 -3.34192,0.3519 -0.25574,-0.5045 -0.46644,-1.0341 -0.88832,-1.4418 -0.6386,-0.6173 -1.54831,-1.0428 -2.57452,-1.0428 z" />
      <path
         id="path1411-33-3-1"
         style="fill:#e95420;fill-opacity:1;stroke:none;stroke-width:0.205008;stroke-linejoin:round;paint-order:markers fill stroke"
         d="m 243.38357,102.9541 c -1.72568,0 -3.12442,1.3885 -3.12439,3.1012 0,1.2559 0.8231,1.984 1.89108,2.5421 -1.69705,2.1092 -1.74996,5.2023 -2.79892,7.9165 2.1315,5.0049 8.98198,6.748 10.87953,7.2925 1.89758,-0.5445 8.74805,-2.2876 10.87955,-7.2925 -1.04897,-2.7142 -1.10187,-5.8073 -2.79892,-7.9165 1.06797,-0.5581 1.89129,-1.2862 1.89129,-2.5421 1e-5,-1.7127 -1.39893,-3.1012 -3.1246,-3.1012 -1.52731,0 -2.40964,1.1457 -2.93629,2.5454 -0.034,-0.014 -0.0661,-0.026 -0.10096,-0.037 -0.70093,-0.2401 -2.22625,-0.3704 -3.76617,-0.3755 h -0.0439 -0.0439 c -1.53992,0 -3.06523,0.1349 -3.76617,0.3755 -0.0349,0.014 -0.0669,0.024 -0.10095,0.037 -0.52664,-1.3997 -1.40897,-2.5454 -2.93629,-2.5454 z m 2.722,8.9255 a 0.71477031,0.71456079 0 0 1 0.71464,0.7143 0.71477031,0.71456079 0 0 1 -0.71464,0.7147 0.71477031,0.71456079 0 0 1 -0.71485,-0.7147 0.71477031,0.71456079 0 0 1 0.71485,-0.7143 z m 8.25082,0 a 0.71477031,0.71456079 0 0 1 0.71465,0.7143 0.71477031,0.71456079 0 0 1 -0.71465,0.7147 0.71477031,0.71456079 0 0 1 -0.71484,-0.7147 0.71477031,0.71456079 0 0 1 0.71484,-0.7143 z m -4.12531,1.1307 c 3.06493,0.099 3.53116,2.6243 3.93849,5.4223 0.39701,2.7268 -2.40785,4.0433 -3.93849,4.2734 -1.53063,-0.2301 -4.33592,-1.5466 -3.93892,-4.2734 0.40734,-2.798 0.87398,-5.3226 3.93892,-5.4223 z m -0.0639,4.8922 c -0.48771,0 -1.40144,0.022 -1.46378,0.6298 -0.0676,0.6592 0.93302,1.3211 1.52746,1.6204 0.59446,-0.2993 1.59512,-0.9612 1.52748,-1.6204 -0.0623,-0.6078 -0.97608,-0.6298 -1.46378,-0.6298 -0.0247,0 -0.0412,2e-4 -0.0638,3e-4 -0.0224,-1e-4 -0.0389,-3e-4 -0.0636,-3e-4 z m 10.08011,1.2597 c -0.30596,0.3523 -0.63469,0.68 -0.97877,0.9868 -1.75904,5.2737 -6.19861,9.384 -9.03766,11.0337 -2.83896,-1.6497 -7.27829,-5.7598 -9.03743,-11.0333 -0.34425,-0.3069 -0.67309,-0.6346 -0.9792,-0.9869 -1.24708,1.839 -3.13976,5.7197 -3.48181,11.2597 2.69818,1.1785 9.29899,1.5982 13.49845,1.6595 4.19947,-0.062 10.80027,-0.481 13.49845,-1.6595 -0.34206,-5.5403 -2.23494,-9.4211 -3.48203,-11.26 z m -8.93158,5.2299 a 0.74645564,0.74535975 0 0 0 -0.74659,0.7454 0.74645564,0.74535975 0 0 0 0.74659,0.7456 0.74645564,0.74535975 0 0 0 0.74637,-0.7456 0.74645564,0.74535975 0 0 0 -0.74637,-0.7454 z m -1.02648,0.073 c -0.87553,0 -1.70472,0.4681 -2.14029,1.2356 h 0.057 c 0.0754,0 0.15047,0.014 0.22515,0.024 0.12177,0.026 0.23608,0.072 0.3408,0.1364 0.33605,-0.4826 0.87862,-0.773 1.46614,-0.7829 0.003,-0.056 0.0101,-0.112 0.0224,-0.1679 0.0343,-0.1597 0.1044,-0.3088 0.20428,-0.4367 -0.0587,0 -0.11704,0 -0.17552,0 z m 2.01952,1.094 c -0.086,0.2023 -0.23195,0.3733 -0.41984,0.4911 0.20156,0.3791 0.26301,0.8168 0.17275,1.2377 -0.0442,0.2061 -0.12235,0.4004 -0.23218,0.5778 0.17557,0.1437 0.29996,0.337 0.35764,0.5547 0.23196,-0.2921 0.39533,-0.6373 0.47394,-1.0041 0.13743,-0.6402 0.009,-1.3125 -0.35231,-1.8572 z m -4.10208,0.4674 a 0.74645564,0.74535975 0 0 0 -0.74617,0.7455 0.74645564,0.74535975 0 0 0 0.74617,0.7453 0.74645564,0.74535975 0 0 0 0.74636,-0.7453 0.74645564,0.74535975 0 0 0 -0.74636,-0.7455 z m 0.44412,1.7198 v 0 c -0.19897,0.092 -0.42297,0.1178 -0.63838,0.078 0.30568,0.7496 0.95403,1.294 1.74983,1.4643 0.17457,0.037 0.3525,0.055 0.53018,0.055 -0.13714,-0.1801 -0.2134,-0.3974 -0.21875,-0.6236 -0.0616,-0.014 -0.12264,-0.017 -0.18277,-0.03 h -4e-4 c -0.53785,-0.1149 -0.9871,-0.458 -1.2397,-0.9442 z m 2.49686,0.2028 a 0.74645564,0.74535975 0 0 0 -0.74659,0.7453 0.74645564,0.74535975 0 0 0 0.74659,0.7456 0.74645564,0.74535975 0 0 0 0.74637,-0.7456 0.74645564,0.74535975 0 0 0 -0.74637,-0.7453 z" />
    </g>
  </g>
</svg>
